<svg id="a" xmlns="http://www.w3.org/2000/svg"  width="242" height="72" viewBox="0 0 283 83.74"><defs><style>.b{fill:#40393b}.c{fill:#fdfdfd}.d{fill:none}</style></defs><path class="b" d="M261.34 39.32c.92.82.94 1.5.51 2.43-.31.68-.36 1.49-.95 2.1-.18-1.51-.64-3.03.44-4.54ZM274.75 47.53c-.07.77-.12 1.59-.87 1.74-.67.14-1.27-.28-1.66-.9.65-.99 1.75-.31 2.52-.84Z"/><path class="b" d="M283 56.89c-.42.15-.38.56-.5.87-.97 2.53-3.57 4.11-6.14 3.28-3.98-1.29-8.07-1.75-12.17-2.29-1.74-.23-3.29-1-4.85-1.87-3.1-1.73-5.61-4.26-8.67-6.01-.79-.45-1.35-.62-1.89.32-1.01-1.01-2.17-1.64-3.67-2.1 1.35 5.71 1.83 11.4 3.57 16.87 1.25 3.92 4.05 5.91 7.67 7.2 1.65.59 3.28 1.25 4.85 2.01 1.56.75 2.89 1.82 3.63 3.45-1.03 1.14-2.58 1.44-3.54 2.66-.68.86-1.87 1.04-2.94 1.17-2.55.31-5.1.09-7.65-.09-1.59-.11-2.86-.89-3.86-2.13-.53-.66-1.13-1.27-2.11-1.11-.44.07-.65-.23-.85-.53-.48-.73-.95-1.47-1.42-2.2-.62-.16-1.02.41-1.57.45l-1.5-1.71c-.98.4-1.93.8-2.84 1.48-1.25-1.54-2.02-3.33-2.66-5.14-1.59-4.46-3.81-8.66-5.46-13.1-.27-.74-.7-1.43-1.15-2.09-.48-.7-.9-1.55-2.06-1.17-.45.15-.69-.46-1.16-.57-.26.3-.51.6-.77.89-.24.27-.41.75-.92.29-.09-.08-.43-.03-.55.08-1.19 1.06-2.97.81-4.19 1.93-.69-1.08-1.34-.52-1.95.04-2.75 2.54-4.06 5.83-4.87 9.37-.28 1.21-.29 2.45-.24 3.68.06 1.62.81 2.8 2.27 3.51 1.4.68 2.9 1.12 4.4 1.52.97.25 1.17.85 1.08 1.67-.11.96-.81 1.9-1.36 2.32-2.96 2.23-6.3 3.39-10.09 2.41-1.34-.35-2.46-1.12-3.54-1.93-.36-.28-.69-.48-1.17-.48-5.71.01-11.43 0-17.12 0-.9 1.86-.95 1.89-2.79 1.73-.99 1.86-2.83 2.4-5.68 2.07-3.58-.42-6.27-2.39-8.85-4.63-.33-.29-.6-.62-1.12-.57-4.22.4-8.42.42-12.53-.61-.83 2.02-.83 2.06-3.04 2.01-12.58-.24-25.17-.09-37.75-.2h-.82c-.49-4.79-.98-9.52-1.47-14.24-.29-.27-.62-.14-.93-.14-6.47-.06-12.94-.09-19.41-.18-.84-.01-1.29.26-1.69.97-2.4 4.27-4.85 8.51-7.28 12.76-.26.45-.46.84-1.14.84-8.59-.01-17.18.01-25.77.03-.11 0-.22-.04-.47-.09l1.46-2.55c-.89-.19-1.55.24-2.24.43-5.65 1.54-11.41 2.21-17.26 2.22-11.75 0-23.5.01-35.25.02H-.02C6.19 53.8 12.36 27.99 18.53 2.14c.35-.02.67-.05.98-.05 10.31 0 20.62-.1 30.93.06 5.96.09 11.85.93 17.28 3.63 4.66 2.31 8.32 5.66 9.26 11.01 1.55 8.83-1.9 16.46-10.84 20.51-.93.42-1.88.82-3.11 1.35 2.35 1.09 4.52 2.01 6.34 3.52 1.87 1.54 3.31 3.4 4.03 5.7.71-.07.79-.59 1-.93 9.01-14.56 18.01-29.13 26.98-43.71.53-.86 1.06-1.16 2.07-1.16 7.27.05 14.55.02 21.82.02h1.32c2.28 16.05 4.56 32.05 6.86 48.22.52-.35.54-.74.63-1.11 3.66-15.33 7.34-30.65 10.97-45.99.23-.98.63-1.15 1.52-1.14 5.83.03 11.67-.05 17.5.04 3.24.05 6.37-.32 9.54-1.03 4.99-1.11 10.04-1.33 15.2-.83 9.44.92 18.52 3.47 27.72 5.51 3.96.88 7.74 2.44 11.74 3.12 1.52.26 3.05.73 4.59.06.22-.09.36-.04.55.04 5.43 2.45 10.43 5.59 15.29 9.02 4.47 3.16 8.34 7.04 12.8 10.2 1.89 1.34 3.91 2.44 6.29 2.72.72.09 1.41-.14 2.23-.09-.33 2.73 1.19 4.64 2.7 6.55 1.09 1.38 1.92 2.93 2.88 4.39.44.66.89 1.33 1.43 1.91.56.6.93 1.08.74 2.04-.25 1.3.47 2.46 1.15 3.55 1.23 1.95 2.9 3.61 3.85 5.74 0 0 .13-.04.2-.05v1.91Zm-170.36 6.42c.45 4.51.91 8.82 1.29 13.13.09 1.08.41 1.48 1.58 1.48 11.71-.03 23.42-.01 35.13.05 1.09 0 1.52-.34 1.77-1.35 1.13-4.68 2.31-9.34 3.48-14.01.91-3.66 1.82-7.31 2.76-11.06 2.39 0 4.7.04 7.01-.02.88-.02 1.34.26 1.75 1.06 4.15 8.12 8.35 16.22 12.5 24.35.41.8.88 1.04 1.75 1.03 7.15-.04 14.31-.01 21.46-.02.29 0 .64.15.93-.25-5.66-10.03-11.33-20.09-17.04-30.22 1-.36 1.79-.63 2.57-.93 5.48-2.07 9.88-5.49 12.77-10.61 2.62-4.65 3.23-9.78 3.04-15.04-.22-5.97-3.09-10.2-8.33-12.98C192 5.24 186.5 4.21 180.9 4.09c-11.07-.22-22.14-.11-33.21-.16-.79 0-.99.35-1.15 1.02-3.96 16.65-7.96 33.28-11.89 49.94-.23.99-.7 1.03-1.49 1.03-.92 0-.88-.61-.93-1.21-.03-.32-.04-.64-.08-.95-2.32-16.25-4.65-32.49-6.94-48.74-.13-.89-.47-1.09-1.3-1.08-6.59.03-13.19.03-19.78 0-.74 0-1.15.24-1.53.86-6.2 10.08-12.43 20.15-18.65 30.21-2.95 4.78-5.91 9.55-8.87 14.33-.74 1.19-1.48 2.37-2.21 3.56l-.37.09c-.26-8.46-6.04-11.5-12.93-13.42-.02-1.28.34-2.12 1.7-2.35.74-.12 1.45-.44 2.16-.72 5.38-2.11 9.85-5.21 11.44-11.14 2.05-7.65-.14-13.98-7.62-17.79-4.7-2.39-9.76-3.3-14.92-3.48-10.5-.36-21.02-.07-31.53-.17-.9 0-.93.55-1.06 1.11-1.56 6.54-3.09 13.09-4.66 19.63-3.86 16.14-7.75 32.27-11.6 48.41-.37 1.57-.88 3.12-1.03 4.79.3.03.49.06.69.06 12.19-.09 24.37.23 36.56-.17 5.12-.17 10.18-.93 15.05-2.6 1.81-.62 3.59-1.35 5.68-2.14l-2.92 4.87h21.82c.67 0 1.05-.31 1.38-.89 2.3-4.1 4.68-8.16 6.94-12.28.58-1.06 1.23-1.44 2.47-1.43 7.47.07 14.94.04 22.56.04Zm156.84-31.87c-2.53.17-4.63-.63-6.62-1.8-1.73-1.02-3.31-2.22-4.84-3.51-2.9-2.44-5.73-4.96-8.83-7.16-4.82-3.42-9.62-6.85-15.17-9.04-.44-.17-.86-.41-1.37-.32-1.94.33-3.85.03-5.69-.5-7.44-2.14-14.97-3.93-22.5-5.7C196.38 1.52 188.24.19 179.9.7c-2.33.14-4.66.41-7.07 1.04.58.29 1.02.18 1.45.19 2.52.07 5.04.04 7.55.2 4.88.31 9.67 1.13 14.21 3.08 5.38 2.31 9.34 5.91 10.82 11.78.76 3.02.67 6.08.39 9.15-.74 8.09-4.25 14.6-11.03 19.23-1.95 1.33-4.06 2.34-6.32 3.2 1.45 2.55 2.85 5.02 4.23 7.44.82-.2.96-1.17 1.91-1.07 0 .92.08 1.83-.02 2.72-.13 1.12.13 2.06.7 3.04 2.54 4.38 5 8.8 7.49 13.2 1.11 1.96 2.2 3.92 3.4 6.06h-2.94c.26.91.25.93 1 1.28 3.41 1.58 6.59.78 9.74-.84 1.15-.59 1.78-1.26 1.23-2.58-.02-.04.08-.12.12-.17.41-.25.56.46.98.22.3-.86.09-1.36-.9-1.61-1.27-.33-2.51-.79-3.73-1.27-2.05-.8-3.01-2.36-3.05-4.55-.07-4.06 1.29-7.66 3.49-10.99.71-1.07 1.6-1.98 2.7-2.68.6-.38 1.13-.56 1.56.42 1.19-1.39 3.11-.93 4.26-2.16.07-.08.23-.14.32-.12.91.2 1.15-.48 1.46-1.08.05-.1.15-.17.22-.25.29.08.33.48.66.45.6-.27.9-1.01 1.64-1.13-.06.71-.26 1.39.35 1.94 1.01.9 1.66 2.05 2.13 3.28 1.61 4.24 3.71 8.28 5.27 12.54.67 1.81 1.34 3.64 2.51 5.25.52-.27.97-.52 1.44-.75.5-.24 1-.46 1.49-.68q1.38 1.78 3.07 1.2c.48.77.96 1.55 1.45 2.32.17.26.29.62.68.59 1.27-.1 1.93.76 2.65 1.57.76.86 1.68 1.52 2.84 1.63 2.55.23 5.1.43 7.66.21.9-.08 1.81-.22 2.63-.79-.75-.95-1.96-1.47-2.24-2.75l2.88 2.66c.06-1.62 1.64-1.26 2.28-2.13l-.69-.91c-.03-.51.53-.33.64-.73-.88-.92-1.95-1.6-3.13-2.1a278.2 278.2 0 0 0-5.65-2.3c-2.94-1.15-5.1-3.07-6.1-6.14-.43-1.32-.89-2.64-1.24-3.99-1.08-4.13-1.5-8.39-2.43-12.55-.17-.76-.23-1.58-.77-2.28 1.61.74 3.3 1.28 4.78 2.5l.59-.86c3.66 1.76 6.39 4.64 9.83 6.5 1.15.62 2.2 1.4 3.49 1.76 1.9.53 3.85.66 5.8.88 1.26.14 2.52.31 4.04.5-.89-.78-1.73-1.15-2.23-1.92 1.2.44 2.34 1.03 3.23 1.9 1.51 1.47 3.29 1.5 5.17 1.27.48-.06.69-.38.92-.8.65-1.16-.29-1.52-1.06-2.09.96-.46 1.79-.89 2.66-1.26 1.06-.46 1.14-1.09.59-2.05-.85-1.5-2-2.78-2.97-4.2-.84-1.23-1.72-2.5-1.62-4.03.07-1.07-.28-1.74-.94-2.5-.76-.86-1.35-1.87-1.95-2.86-.77-1.26-1.57-2.49-2.5-3.65-1.32-1.64-2.43-3.37-2.44-5.68ZM160.19 53.5c-1.99 7.99-3.96 15.85-5.94 23.8 3.84 1.05 7.62.97 11.54.69-1.81-2.23-2.81-4.6-2.77-7.32.04-2.59-.45-5.18-.11-7.77.02 2.55.6 5.03.74 7.56.12 2.17.64 4.22 2.09 5.86 1.64 1.85 3.52 3.45 5.57 4.86 2.31 1.59 4.89 2.08 7.62 1.98 2.03-.07 2.58-.66 2.76-2.61 1.64 1 2.21.89 2.56-.64-1.25 0-2.48-.06-3.7.02-.95.06-1.46-.24-1.91-1.13-4.16-8.16-8.38-16.29-12.58-24.43-.23-.45-.37-.91-1.08-.88-1.55.06-3.11.02-4.77.02Zm35.21 2.58c-.99.82-.99.84 0 1.81v-1.81Z"/><path d="M112.63 63.32c-7.62 0-15.09.04-22.56-.04-1.24-.01-1.88.37-2.47 1.43-2.26 4.12-4.64 8.18-6.94 12.28-.33.59-.71.89-1.38.89H57.46l2.92-4.87c-2.09.79-3.86 1.52-5.68 2.14-4.87 1.67-9.93 2.43-15.05 2.6-12.18.4-24.37.08-36.56.17-.19 0-.39-.03-.69-.06.15-1.67.66-3.22 1.03-4.79 3.85-16.14 7.73-32.27 11.6-48.41 1.57-6.54 3.1-13.09 4.66-19.63.13-.56.17-1.12 1.06-1.11 10.51.1 21.02-.19 31.53.17 5.16.18 10.22 1.09 14.92 3.48 7.48 3.8 9.67 10.14 7.62 17.79-1.59 5.93-6.05 9.04-11.44 11.14-.71.28-1.42.59-2.16.72-1.36.22-1.71 1.07-1.7 2.35 6.89 1.91 12.67 4.96 12.93 13.42l.37-.09c.74-1.19 1.48-2.37 2.21-3.56 2.96-4.78 5.92-9.55 8.87-14.33 6.22-10.07 12.44-20.14 18.65-30.21.38-.62.8-.86 1.53-.86 6.59.03 13.19.03 19.78 0 .83 0 1.18.19 1.3 1.08 2.29 16.25 4.62 32.49 6.94 48.74.04.32.06.64.08.95.05.6.01 1.2.93 1.21.79 0 1.25-.03 1.49-1.03 3.93-16.65 7.93-33.29 11.89-49.94.16-.67.36-1.03 1.15-1.02 11.07.05 22.14-.06 33.21.16 5.6.11 11.1 1.14 16.16 3.83 5.24 2.78 8.11 7.01 8.33 12.98.19 5.26-.42 10.38-3.04 15.04-2.89 5.12-7.29 8.54-12.77 10.61-.78.3-1.57.57-2.57.93 5.71 10.13 11.38 20.19 17.04 30.22-.29.41-.64.25-.93.25-7.15 0-14.31-.01-21.46.02-.88 0-1.35-.23-1.75-1.03-4.15-8.12-8.35-16.22-12.5-24.35-.41-.79-.86-1.08-1.75-1.06-2.31.06-4.62.02-7.01.02-.94 3.75-1.85 7.41-2.76 11.06-1.16 4.67-2.35 9.33-3.48 14.01-.24 1.01-.67 1.36-1.77 1.35-11.71-.06-23.42-.08-35.13-.05-1.17 0-1.48-.39-1.58-1.48-.38-4.32-.84-8.63-1.29-13.13Zm49.45-26.35c3.63-.04 7.01.2 10.4-.08 1.75-.15 3.49-.4 5.17-.94 2.49-.79 4.21-2.38 5.01-4.88.55-1.7.52-3.46.33-5.21-.34-3.13-2.33-5.2-5.44-5.58-3.66-.45-7.34-.15-11.02-.23-.57-.01-.7.26-.81.78-.68 3.15-1.41 6.29-2.12 9.44-.49 2.16-.98 4.33-1.53 6.7ZM26.04 62.34c3.34 0 6.4-.03 9.47 0 2.13.03 4.21-.2 6.28-.68 3.4-.79 5.99-2.46 7.01-6.05 1.3-4.58-.85-7.95-5.59-8.55-4.22-.53-8.45-.07-12.68-.19-.7-.02-.72.49-.84.94-.78 3.04-1.55 6.08-2.32 9.13-.43 1.72-.85 3.44-1.33 5.39Zm5.22-29.74c.32.06.47.11.62.11 4.07-.1 8.14.05 12.2-.21 4.3-.28 7.02-3.29 6.84-7.59-.1-2.36-1.42-3.9-3.76-4.43-1.58-.35-3.18-.22-4.77-.23-2.67-.02-5.33 0-7.96 0-1.07 4.16-2.1 8.19-3.16 12.35ZM97 48.14h13.73c-.68-6.66-1.34-13.25-2.01-19.84l-.24-.06L97 48.14Z" fill="#ED1E24"/><path class="c" d="M269.47 31.45c.01 2.31 1.13 4.04 2.44 5.68.93 1.15 1.73 2.39 2.5 3.65.6.98 1.2 2 1.95 2.86.67.75 1.01 1.43.94 2.5-.1 1.53.78 2.8 1.62 4.03.97 1.41 2.11 2.69 2.97 4.2.54.96.47 1.6-.59 2.05-.86.37-1.7.8-2.66 1.26.77.57 1.7.93 1.06 2.09-.24.43-.45.74-.92.8-1.88.22-3.66.2-5.17-1.27-.89-.87-2.03-1.46-3.23-1.9.5.77 1.34 1.14 2.23 1.92-1.52-.19-2.78-.36-4.04-.5-1.94-.22-3.9-.35-5.8-.88-1.29-.36-2.34-1.13-3.49-1.76-3.44-1.86-6.17-4.74-9.83-6.5l-.59.86c-1.48-1.22-3.17-1.76-4.78-2.5.54.7.59 1.51.77 2.28.93 4.16 1.36 8.42 2.43 12.55.35 1.35.81 2.66 1.24 3.99 1 3.06 3.16 4.98 6.1 6.14 1.89.74 3.78 1.5 5.65 2.3 1.18.5 2.25 1.17 3.13 2.1-.11.39-.67.22-.64.73l.69.91c-.64.87-2.22.51-2.28 2.13l-2.88-2.66c.28 1.28 1.49 1.8 2.24 2.75-.82.56-1.72.71-2.63.79-2.56.22-5.11.03-7.66-.21-1.16-.11-2.08-.77-2.84-1.63-.72-.82-1.39-1.67-2.65-1.57-.39.03-.51-.33-.68-.59-.49-.77-.97-1.55-1.45-2.32q-1.69.58-3.07-1.2c-.49.22-1 .44-1.49.68-.46.22-.91.47-1.44.75-1.18-1.61-1.85-3.44-2.51-5.25-1.56-4.26-3.66-8.3-5.27-12.54-.47-1.23-1.12-2.38-2.13-3.28-.61-.55-.41-1.23-.35-1.94-.75.12-1.04.86-1.64 1.13-.33.02-.37-.38-.66-.45-.07.08-.17.15-.22.25-.31.6-.54 1.28-1.46 1.08-.1-.02-.25.05-.32.12-1.15 1.23-3.06.78-4.26 2.16-.43-.98-.95-.8-1.56-.42-1.1.7-1.99 1.61-2.7 2.68-2.2 3.33-3.56 6.93-3.49 10.99.04 2.19.99 3.75 3.05 4.55 1.22.48 2.47.94 3.73 1.27.98.26 1.2.75.9 1.61-.42.24-.57-.47-.98-.22-.04.05-.13.14-.12.17.55 1.32-.08 1.98-1.23 2.58-3.15 1.62-6.33 2.42-9.74.84-.75-.35-.74-.37-1-1.28h2.94c-1.2-2.13-2.29-4.1-3.4-6.06-2.49-4.41-4.96-8.82-7.49-13.2-.57-.98-.82-1.92-.7-3.04.1-.89.02-1.8.02-2.72-.95-.1-1.09.87-1.91 1.07-1.38-2.42-2.78-4.89-4.23-7.44 2.26-.86 4.38-1.87 6.32-3.2 6.78-4.63 10.29-11.14 11.03-19.23.28-3.07.37-6.13-.39-9.15-1.48-5.87-5.44-9.47-10.82-11.78-4.53-1.94-9.32-2.77-14.21-3.08-2.51-.16-5.03-.13-7.55-.2-.43-.01-.87.1-1.45-.19 2.41-.63 4.73-.9 7.07-1.04 8.34-.51 16.48.81 24.56 2.71 7.53 1.77 15.06 3.56 22.5 5.7 1.84.53 3.75.83 5.69.5.51-.09.93.15 1.37.32 5.55 2.18 10.36 5.62 15.17 9.04 3.1 2.2 5.93 4.72 8.83 7.16 1.53 1.29 3.11 2.5 4.84 3.51 1.99 1.17 4.09 1.97 6.62 1.8Zm-26.18 16.17c-.11-.31-.12-.46-.19-.53a4.66 4.66 0 0 0-.69-.47c-3.19-1.94-6.35-1.72-9.46.19-2.37 1.46-4.23 3.49-6.18 5.41-.04.04.03.19.07.41 1.83-1.59 3.45-3.28 5.31-4.7 3.67-2.81 7.18-2.95 11.14-.31Zm17.27-8.29c-1.07 1.5-.61 3.03-.44 4.54.59-.62.64-1.42.95-2.1.43-.93.4-1.61-.51-2.43Zm13.41 8.21c-.78.53-1.87-.15-2.52.84.38.63.98 1.04 1.66.9.75-.16.79-.97.87-1.74ZM160.19 53.51c1.66 0 3.22.04 4.77-.02.71-.03.85.43 1.08.88 4.2 8.14 8.42 16.27 12.58 24.43.45.89.96 1.19 1.91 1.13 1.22-.08 2.45-.02 3.7-.02-.35 1.53-.92 1.65-2.56.64-.18 1.96-.73 2.54-2.76 2.61-2.72.1-5.3-.39-7.62-1.98-2.05-1.41-3.94-3.01-5.57-4.86-1.45-1.64-1.97-3.69-2.09-5.86-.14-2.52-.72-5.01-.74-7.56-.34 2.59.15 5.18.11 7.77-.04 2.72.96 5.08 2.77 7.32-3.92.28-7.69.36-11.54-.69 1.98-7.94 3.94-15.81 5.94-23.8Zm2.44 2.72h-.45c-.02 1.92.27 3.8.45 5.68v-5.68Z"/><path class="c" d="M195.39 56.09v1.81c-.99-.96-.99-.98 0-1.81Z"/><path class="b" d="M162.09 36.97c.54-2.38 1.03-4.54 1.53-6.7.71-3.14 1.44-6.29 2.12-9.44.11-.51.24-.79.81-.78 3.67.08 7.35-.22 11.02.23 3.11.38 5.11 2.45 5.44 5.58.19 1.75.22 3.51-.33 5.21-.81 2.5-2.52 4.09-5.01 4.88-1.69.53-3.42.79-5.17.94-3.39.29-6.77.05-10.4.08Zm2.48-2.03c3.11.22 6.08.18 9.05-.17.79-.09 1.58-.23 2.35-.41 3.91-.89 5.37-3.06 5.13-7.61-.16-2.94-1.52-4.35-4.44-4.58-.56-.04-1.11-.1-1.67-.11-2.5-.01-4.99 0-7.48 0-.98 4.32-1.94 8.51-2.93 12.89ZM26.04 62.34c.48-1.94.9-3.67 1.33-5.39.77-3.04 1.54-6.09 2.32-9.13.11-.45.13-.96.84-.94 4.23.12 8.46-.34 12.68.19 4.74.6 6.89 3.97 5.59 8.55-1.02 3.59-3.62 5.25-7.01 6.05-2.07.48-4.15.71-6.28.68-3.07-.04-6.13 0-9.47 0Zm5.31-13.6-2.94 11.74c2.61 0 5.01-.03 7.4.01 1.68.03 3.34-.14 4.98-.49 3.09-.65 5.63-1.89 6.37-5.39.63-3-.64-5.16-3.71-5.63-4-.62-8.04-.1-12.09-.25ZM31.26 32.61c1.07-4.16 2.1-8.19 3.16-12.35 2.63 0 5.3-.02 7.96 0 1.59.01 3.19-.13 4.77.23 2.34.53 3.66 2.06 3.76 4.43.18 4.3-2.54 7.31-6.84 7.59-4.06.26-8.13.11-12.2.21-.15 0-.31-.05-.62-.11Zm4.59-10.55c-.76 2.93-1.5 5.8-2.25 8.7 3.49 0 6.89.16 10.27-.05 3.3-.2 4.71-1.7 5.23-4.86.33-1.99-.8-3.51-2.79-3.66-3.47-.26-6.94-.06-10.47-.13ZM97 48.15l11.48-19.9.24.06c.67 6.59 1.34 13.17 2.01 19.84H97Zm11.73-1.79c-.43-4.08-.84-8.05-1.26-12.02l-.39-.05c-2.29 3.98-4.58 7.95-6.95 12.07h8.6ZM243.29 47.61c-3.97-2.64-7.47-2.5-11.14.31-1.85 1.42-3.48 3.11-5.31 4.7-.04-.21-.11-.37-.07-.41 1.95-1.93 3.82-3.96 6.18-5.41 3.11-1.92 6.27-2.13 9.46-.19.24.14.47.3.69.47.08.06.08.21.19.53ZM162.63 56.22v5.68c-.18-1.89-.47-3.77-.45-5.67h.45Z"/><path class="c" d="M164.57 34.94c1-4.38 1.95-8.56 2.93-12.89h7.48c.56 0 1.12.06 1.67.11 2.92.23 4.29 1.64 4.44 4.58.24 4.55-1.21 6.72-5.13 7.61-.78.18-1.56.32-2.35.41-2.97.35-5.94.39-9.05.17Z"/><path class="d" d="M31.35 48.74c4.06.16 8.09-.37 12.09.25 3.07.47 4.34 2.63 3.71 5.63-.73 3.5-3.27 4.73-6.37 5.39-1.64.35-3.29.52-4.98.49-2.39-.05-4.79-.01-7.4-.01l2.94-11.74ZM35.86 22.05c3.53.07 7-.12 10.47.13 1.99.15 3.12 1.67 2.79 3.66-.52 3.15-1.93 4.66-5.23 4.86-3.38.21-6.78.05-10.27.05.75-2.9 1.49-5.77 2.25-8.7ZM108.74 46.36h-8.6c2.37-4.12 4.66-8.09 6.95-12.07l.39.05c.42 3.97.83 7.94 1.26 12.02Z"/></svg>