<?xml version="1.0" encoding="UTF-8"?>
<svg id="Layer_1" data-name="Layer 1" xmlns="http://www.w3.org/2000/svg" width="302.24" height="54.38" viewBox="0 0 302.24 54.38">
  <defs>
    <style>
      .cls-1 {
        fill: #381460;
      }

      .cls-2 {
        fill: #782b90;
      }
    </style>
  </defs>
  <g>
    <path class="cls-2" d="M229.93,25.53c0,1.75,1.79,6.4,3.31,10.02.85-2.64,1.31-5.45,1.31-8.36,0-3.58-.7-7-1.96-10.14-1.34,3.3-2.67,6.96-2.67,8.47h0Z"/>
    <path class="cls-2" d="M222.21,25.53c0-2.49,4.99-9.46,7.88-13.28-4.86-7.38-13.22-12.25-22.71-12.25-15.01,0-27.19,12.17-27.19,27.19s12.17,27.19,27.19,27.19c10.27,0,19.21-5.7,23.83-14.1-2.42-3.13-9-11.89-9-14.75ZM194.31,42.06c.45,1.02-.08,2.21-1.15,2.55h0c-.76.25-1.59,0-2.07-.64-2.37-3.06-9.06-11.94-9.06-14.83s6.69-11.77,9.06-14.83c.49-.63,1.32-.89,2.07-.64,1.06.35,1.6,1.53,1.15,2.55-1.52,3.46-4.55,10.64-4.55,12.91s3.03,9.45,4.55,12.91ZM203.18,33.13c.03,1.12-.91,2.01-2.03,1.93-.79-.06-1.47-.61-1.68-1.38-1.04-3.72-3.88-14.48-2.79-17.15,1.09-2.67,10.64-8.37,13.99-10.3.69-.4,1.55-.32,2.16.19.85.72.9,2.02.1,2.8-2.72,2.63-8.24,8.12-9.1,10.23-.86,2.11-.77,9.9-.66,13.68h0ZM220.47,19.3c-1.98,3.22-5.95,9.92-6.27,12.18-.31,2.26,1.72,9.78,2.76,13.41.31,1.07-.38,2.17-1.48,2.37-.78.14-1.57-.22-1.97-.91-1.93-3.35-7.35-13.06-6.96-15.92.39-2.86,8.23-10.75,10.99-13.46.57-.56,1.42-.7,2.14-.35,1,.49,1.37,1.73.79,2.68h0Z"/>
  </g>
  <g>
    <path class="cls-1" d="M239.07,11.14c0-.74.6-1.34,1.34-1.34h14.06c7.45,0,12.17,4.72,12.17,11.67,0,3.97-1.44,6.56-2.98,8.1-.84.9-1.84,1.59-2.98,2.09l6.09,10.92c.5.89-.15,1.99-1.17,1.99h-5.12c-.49,0-.94-.27-1.18-.7l-5.83-10.72h-6.95v10.08c0,.74-.6,1.34-1.34,1.34h-4.77c-.74,0-1.34-.6-1.34-1.34V11.14ZM254.22,26.19c3.54,0,5.71-3.14,4.26-7.17-.49-1.37-1.82-2.27-3.28-2.27h-8.68v9.44h7.7Z"/>
    <path class="cls-1" d="M272.54,9.65h4.71c.41,0,.8.19,1.05.51l16.48,21.09V10.99c0-.74.6-1.34,1.34-1.34h4.77c.74,0,1.34.6,1.34,1.34v32.08c0,.74-.6,1.34-1.34,1.34h-4.71c-.41,0-.8-.19-1.05-.51l-16.48-21.09v20.26c0,.74-.6,1.34-1.34,1.34h-4.77c-.74,0-1.34-.6-1.34-1.34V10.99c0-.74.6-1.34,1.34-1.34Z"/>
  </g>
  <g>
    <path class="cls-1" d="M47.47,9.81h6.6c.56,0,1.05.34,1.25.86l12.38,32.08c.34.88-.31,1.82-1.25,1.82h-5.07c-.56,0-1.06-.35-1.26-.87l-2.66-7.07h-13.41l-2.66,7.07c-.2.52-.7.87-1.26.87h-5.07c-.94,0-1.59-.94-1.25-1.82l12.38-32.08c.2-.52.7-.86,1.25-.86h0ZM54.99,29.92l-4.12-11.42h-.2l-4.12,11.42h8.44Z"/>
    <path class="cls-1" d="M102.03,11.14c0-.74.6-1.34,1.34-1.34h14.06c7.45,0,12.17,4.72,12.17,11.67,0,3.97-1.44,6.56-2.98,8.1-.84.9-1.84,1.59-2.98,2.09l6.09,10.92c.5.89-.15,1.99-1.17,1.99h-5.12c-.49,0-.94-.27-1.18-.7l-5.83-10.72h-6.95v10.08c0,.74-.6,1.34-1.34,1.34h-4.77c-.74,0-1.34-.6-1.34-1.34V11.14h0ZM117.17,26.19c3.54,0,5.71-3.14,4.26-7.17-.49-1.37-1.82-2.27-3.28-2.27h-8.68v9.44h7.7,0Z"/>
    <path class="cls-1" d="M136.28,9.81h4.77c.74,0,1.34.6,1.34,1.34v32.08c0,.74-.6,1.34-1.34,1.34h-4.77c-.74,0-1.34-.6-1.34-1.34V11.14c0-.74.6-1.34,1.34-1.34h0Z"/>
    <path class="cls-1" d="M70.71,11.14c0-.74.6-1.34,1.34-1.34h13.31c7.4,0,12.41,4.92,12.41,11.67s-5.02,11.67-12.41,11.67h-7.2v10.08c0,.74-.6,1.34-1.34,1.34h-4.77c-.74,0-1.34-.6-1.34-1.34V11.14h0ZM85.11,26.19c2.98,0,4.97-1.94,4.97-4.72s-1.99-4.72-4.97-4.72h-6.95v9.44h6.95Z"/>
    <path class="cls-1" d="M26.61,34.44c-2.13,2.49-5.32,4.03-8.88,3.91-5.77-.2-10.55-4.96-10.77-10.73-.24-6.37,4.85-11.61,11.17-11.61,3.4,0,6.44,1.52,8.49,3.92.55.64,1.57.58,2.07-.1l2.84-3.89c.4-.54.33-1.29-.15-1.76-3.75-3.69-9.87-5.74-15.75-4.95C7.5,10.32,1.03,16.95.12,25.1c-1.22,10.94,7.31,20.21,18.01,20.21,4.9,0,10.08-1.96,13.26-5.12.48-.47.54-1.22.14-1.75l-2.84-3.89c-.5-.69-1.53-.75-2.08-.1Z"/>
    <path class="cls-1" d="M173.27,34.81c-2,2.14-4.83,3.5-7.98,3.55-5.99.09-11.12-4.76-11.34-10.73-.24-6.37,4.85-11.61,11.17-11.61,3.22,0,6.12,1.37,8.16,3.55.56.61,1.55.52,2.03-.14l2.54-3.48c.4-.55.33-1.3-.16-1.77-3.81-3.69-9.21-5.73-15.08-4.94-8.12,1.09-14.6,7.72-15.51,15.87-1.22,10.94,7.31,20.21,18.01,20.21,4.89,0,9.31-1.95,12.58-5.1.49-.47.57-1.23.17-1.77l-2.55-3.49c-.49-.67-1.47-.75-2.04-.14h0Z"/>
  </g>
</svg>