<svg xmlns="http://www.w3.org/2000/svg" id="Layer_1" data-name="Layer 1" viewBox="0 0 518.87 105.79"><defs><style>.cls-1{fill:#fff;}</style></defs><title>01Artboard 1</title><path class="cls-1" d="M127.11,29.36h33a31.58,31.58,0,0,1,6.29.48,16.49,16.49,0,0,1,6.21,2.5,11.64,11.64,0,0,1,3.83,4.41A13.75,13.75,0,0,1,177.75,43a12.55,12.55,0,0,1-1.5,6.32,11.93,11.93,0,0,1-4.32,4.32,20,20,0,0,1-4.94,2c3.81.63,6.72,2,8.71,4.31a12.3,12.3,0,0,1,3,8.5,13,13,0,0,1-2.4,7.79,11.3,11.3,0,0,1-6.16,4.43,38.41,38.41,0,0,1-10.76,1.5H127.11Zm18.66,10.43v10.5h5.78c2.34,0,4-.47,5.06-1.4a4.8,4.8,0,0,0,1.57-3.73,5.16,5.16,0,0,0-.9-3,4.64,4.64,0,0,0-2.41-1.86,12.91,12.91,0,0,0-4.28-.54Zm0,21v11h5.45c2.58,0,4.47-.53,5.67-1.57a5,5,0,0,0,1.8-4,5.58,5.58,0,0,0-.86-3.08,4.59,4.59,0,0,0-2.35-1.88,13.42,13.42,0,0,0-4.32-.54Z"></path><path class="cls-1" d="M200.15,29.36h27.67l18.69,52.83H225.4l-3.48-11.52H205l-3.2,11.52H181.68Zm7.61,28.9H219.4l-5.82-17.08Z"></path><path class="cls-1" d="M252.14,29.36h29.94l10.33,37v-37H309.3V82.19H280l-10.68-39v39H252.14Z"></path><path class="cls-1" d="M322,29.36h20.12V66.82h24.63V82.19H322Z"></path><path class="cls-1" d="M389.82,29.36h27.65l18.67,52.83H415.07l-3.49-11.52h-16.9l-3.22,11.52H371.33Zm7.61,28.9h11.63l-5.81-17.08Z"></path><path class="cls-1" d="M466.91,29.36h19.26l8.23,33.58,6.51-33.58h18L506.29,82.19H484.7l-8.87-34-8.41,34H445.5L433.17,29.36H452l6.45,33.58Z"></path><path class="cls-1" d="M52.9,0a52.89,52.89,0,1,0,52.9,52.88A52.89,52.89,0,0,0,52.9,0ZM77.7,57c0,12.61-10.73,22.83-24,22.83h-.84c-13.24,0-24-10.22-24-22.83a22.32,22.32,0,0,1,7.36-16.46h0l17-17.73.06.06v-.06l17,17.73h0A22.31,22.31,0,0,1,77.7,57ZM52.9,97.26A44.38,44.38,0,0,1,51.57,8.51h1.49L29.36,33.18h.06A31.46,31.46,0,0,0,19,56.42c0,17.81,15.19,32.26,33.9,32.26h.84c18.68,0,33.84-14.45,33.84-32.26A31.44,31.44,0,0,0,77.2,33.19h.08L53.59,8.52a44.37,44.37,0,0,1-.69,88.74Z"></path></svg>