<svg xmlns="http://www.w3.org/2000/svg" viewBox="0 0 430.87 165.44"><defs><style>.cls-1,.cls-7{fill:#fff;}.cls-1,.cls-2,.cls-3,.cls-4,.cls-5{stroke:#1d1d1b;}.cls-1,.cls-3{stroke-width:2px;}.cls-2,.cls-4,.cls-6{fill:#1d1d1b;}.cls-2{stroke-width:0.98px;}.cls-3{fill:#006eb8;}.cls-4{stroke-width:1px;}.cls-5{fill:#c4014b;stroke-width:2px;}</style></defs><g id="Layer_2" data-name="Layer 2"><g id="Layer_1-2" data-name="Layer 1"><path class="cls-1" d="M389,82.72c0,45.13-86.85,81.72-194,81.72S1,127.85,1,82.72,87.86,1,195,1,389,37.59,389,82.72Z"/><path class="cls-2" d="M349.53,36.74C314.55,19.87,261,8.86,201,8.86c-105.4,0-190.85,33.3-190.85,74.37S95.61,157.59,201,157.59c52.7,0,100.41-8.32,135-21.78l-.19-.39c-34.91,15.78-85.27,25.69-141.26,25.69C89.11,161.11,3.67,126,3.67,82.69S89.11,4.27,194.51,4.27c64,0,120.63,12.94,155.25,32.8Z"/><path class="cls-3" d="M66.81,37.7S188.42-11.9,335,37.7Z"/><path class="cls-3" d="M334.61,129.36S213,179,66.38,129.36Z"/><path class="cls-4" d="M53.52,82.47s10.93-23.9-8.35-42.61c0,0-13.53,6-18.71,12.67C26.46,52.53,44.74,56.56,53.52,82.47Z"/><path class="cls-4" d="M53.52,82.47s-15.69-20.73-40.45-14c0,0-7.63,12.53-1.15,25.62C11.92,94.12,20,77.72,53.52,82.47Z"/><path class="cls-4" d="M53.52,82.47s-26.2,4-32.25,26.77c0,0,13.53,13.38,24.18,17.27,0,0-13.24-9.79-2-30.8A70.24,70.24,0,0,1,53.52,82.47Z"/><path class="cls-5" d="M62.53,124.19H421.34a8.52,8.52,0,0,0,8.53-8.51V50.6a8.51,8.51,0,0,0-8.53-8.5H66.28s8.93,9.18-5.2,31.42c0,0-13.3,13.72-6.65,36.16A62.05,62.05,0,0,0,62.53,124.19Z"/><path class="cls-6" d="M85.33,100.27V60.77a28.32,28.32,0,0,1,21.17-.66s7.83,2.83,6,15c0,0-1,8.33-11,9.83a47.29,47.29,0,0,1-7,0v15.33ZM103.5,69.11c-1.17-7.34-9-4.5-9-4.5v14.5C106.17,80.27,103.5,69.11,103.5,69.11Z"/><polygon class="cls-6" points="141.82 67.97 150.67 100.27 159.17 100.27 164.67 78.77 169.83 100.44 178.5 100.44 187.17 67.94 179 67.94 174.17 90.61 168.83 67.94 161.17 67.94 155.5 90.77 151 67.94 141.82 67.97"/><path class="cls-6" d="M228.2,100.44V74.07c2.68-1.37,6.1.07,6.1.07l1.78-6.72c-11.16-1-17.12,2.26-17.12,2.26v30.83Z"/><path class="cls-6" d="M312.6,100.44V74.07c2.68-1.37,6.1.07,6.1.07l1.78-6.72c-11.16-1-17.12,2.26-17.12,2.26v30.83Z"/><polygon class="cls-6" points="254.83 100.34 254.83 65.56 247.71 65.56 247.71 58.94 271.58 58.94 271.58 65.56 264.46 65.56 264.46 100.31 254.83 100.34"/><path class="cls-6" d="M116,94.61s-6.5-13.17,2.17-24c0,0,5.33-6.17,16.33-1.84,0,0,8.33,3.83,7.33,16.17,0,0,0,18-16.66,15.83A12.41,12.41,0,0,1,116,94.61Zm11.71-.12c4.5.62,4.84-7.48,4.84-7.48,1.11-15.37-4.71-13.78-4.71-13.78-5-.13-4.91,8.38-4.91,8.38C121.75,95.81,127.71,94.49,127.71,94.49Z"/><path class="cls-6" d="M273.22,94.61s-6.5-13.17,2.17-24c0,0,5.33-6.17,16.33-1.84,0,0,8.33,3.83,7.33,16.17,0,0,0,18-16.66,15.83A12.41,12.41,0,0,1,273.22,94.61Zm11.71-.12c4.81.12,4.84-7.48,4.84-7.48.9-14.91-4.71-13.78-4.71-13.78-5.05-.13-4.91,8.38-4.91,8.38C279,95.81,284.93,94.49,284.93,94.49Z"/><path class="cls-6" d="M199.91,93.59c5.07,2.47,12.47-.89,12.47-.89l2.06,5.82c-4.87,2.67-12.68,2.47-12.68,2.47-14.38-1.1-14.18-15.28-14.18-15.28C187,75,192.72,70.3,192.72,70.3c9.93-6.37,17.54-.48,17.54-.48,5.89,4,5.2,14.87,5.2,14.87l-19,2.87C197,92.63,199.91,93.59,199.91,93.59ZM195.8,82.66l11-1.58s.37-7.32-4.27-8.06C202.56,73,195.34,71.54,195.8,82.66Z"/><path class="cls-6" d="M396.25,93.59c5.07,2.47,12.46-.89,12.46-.89l2.06,5.82c-4.86,2.67-12.67,2.47-12.67,2.47-14.39-1.1-14.18-15.28-14.18-15.28C383.3,75,389.05,70.3,389.05,70.3c9.94-6.37,17.54-.48,17.54-.48,5.89,4,5.21,14.87,5.21,14.87l-19.05,2.87C393.3,92.63,396.25,93.59,396.25,93.59Zm-4.11-10.93,11-1.58s.37-7.32-4.26-8.06C398.9,73,391.67,71.54,392.14,82.66Z"/><path class="cls-6" d="M348.48,69.69v43.63h-9.26V99.7s-12.32,5.1-17.33-6.85c0,0-6.67-19.55,9.92-25C331.81,67.83,340.88,65.7,348.48,69.69Zm-9.36,24.73V73.21s-7.59-2.6-8.89,5.18c0,0-2.69,12.23,3.24,16.13C333.47,94.52,335.51,95.44,339.12,94.42Z"/><path class="cls-6" d="M353.67,68V90a9.87,9.87,0,0,0,6.49,10.09s11.3,2.6,20.19-1.66V67.83h-9.17v26s-4.91,1.66-6.85-.1c0,0-1.39-.55-1.39-3.61V67.83Z"/><path class="cls-7" d="M84,98.94V59.44a28.29,28.29,0,0,1,21.17-.67s7.83,2.84,6,15c0,0-1,8.34-11,9.84a47.29,47.29,0,0,1-7,0V98.94Zm18.17-31.17c-1.17-7.33-9-4.5-9-4.5v14.5C104.83,78.94,102.17,67.77,102.17,67.77Z"/><polygon class="cls-7" points="140.49 66.64 149.33 98.94 157.83 98.94 163.33 77.44 168.5 99.11 177.17 99.11 185.83 66.61 177.67 66.61 172.83 89.27 167.5 66.61 159.83 66.61 154.17 89.44 149.67 66.61 140.49 66.64"/><path class="cls-7" d="M226.87,99.11V72.73c2.67-1.37,6.1.07,6.1.07l1.78-6.71c-11.17-1-17.13,2.26-17.13,2.26V99.18Z"/><path class="cls-7" d="M311.27,99.11V72.73c2.67-1.37,6.1.07,6.1.07l1.78-6.71C308,65.13,302,68.35,302,68.35V99.18Z"/><polygon class="cls-7" points="253.5 99.01 253.5 64.23 246.38 64.23 246.38 57.61 270.25 57.61 270.25 64.23 263.13 64.23 263.13 98.98 253.5 99.01"/><path class="cls-7" d="M114.67,93.27s-6.5-13.16,2.16-24c0,0,5.34-6.16,16.34-1.83,0,0,8.33,3.83,7.33,16.17,0,0,0,18-16.67,15.83A12.41,12.41,0,0,1,114.67,93.27Zm11.7-.11c4.5.62,4.85-7.48,4.85-7.48,1.11-15.37-4.71-13.78-4.71-13.78-5.05-.14-4.91,8.38-4.91,8.38C120.42,94.47,126.37,93.16,126.37,93.16Z"/><path class="cls-7" d="M271.89,93.27s-6.5-13.16,2.16-24c0,0,5.34-6.16,16.34-1.83,0,0,8.33,3.83,7.33,16.17,0,0,0,18-16.67,15.83A12.41,12.41,0,0,1,271.89,93.27Zm11.7-.11c4.82.12,4.85-7.48,4.85-7.48.9-14.92-4.71-13.78-4.71-13.78-5.05-.14-4.91,8.38-4.91,8.38C277.64,94.47,283.59,93.16,283.59,93.16Z"/><path class="cls-7" d="M198.58,92.26c5.07,2.46,12.47-.89,12.47-.89l2,5.82c-4.86,2.67-12.67,2.47-12.67,2.47-14.39-1.1-14.18-15.28-14.18-15.28C185.63,73.63,191.39,69,191.39,69c9.93-6.37,17.53-.48,17.53-.48,5.89,4,5.21,14.86,5.21,14.86l-19,2.88C195.63,91.3,198.58,92.26,198.58,92.26Zm-4.11-10.94,11-1.57s.37-7.32-4.26-8.06C201.23,71.69,194,70.21,194.47,81.32Z"/><path class="cls-7" d="M394.91,92.26c5.07,2.46,12.47-.89,12.47-.89l2.06,5.82c-4.87,2.67-12.68,2.47-12.68,2.47-14.38-1.1-14.18-15.28-14.18-15.28C382,73.63,387.72,69,387.72,69c9.93-6.37,17.54-.48,17.54-.48,5.89,4,5.2,14.86,5.2,14.86l-19,2.88C392,91.3,394.91,92.26,394.91,92.26ZM390.8,81.32l11-1.57s.37-7.32-4.26-8.06C397.57,71.69,390.34,70.21,390.8,81.32Z"/><path class="cls-7" d="M347.15,68.35V112h-9.27V98.37s-12.32,5.1-17.32-6.85c0,0-6.67-19.55,9.91-25C330.47,66.5,339.55,64.37,347.15,68.35Zm-9.36,24.74V71.87s-7.6-2.59-8.89,5.19c0,0-2.69,12.23,3.24,16.12C332.14,93.18,334.18,94.11,337.79,93.09Z"/><path class="cls-7" d="M352.34,66.69v22a9.87,9.87,0,0,0,6.48,10.1s11.31,2.6,20.2-1.67V66.5h-9.17V92.44s-4.91,1.67-6.86-.09c0,0-1.39-.56-1.39-3.61V66.5Z"/></g></g></svg>